# Blender v2.91.0 OBJ File: 'UVRivers_blender.blend'
# www.blender.org
mtllib BentRiver.mtl
o BentRiver_Cube.001
v 8.209102 1.000000 -11.723286
v 8.209102 -1.000000 -11.723286
v 14.111103 1.000000 -10.643297
v 14.111103 -1.000000 -10.643297
v -10.000000 1.000000 -3.000000
v -10.000000 -1.000000 -3.000000
v -10.000000 1.000000 3.000000
v -10.000000 -1.000000 3.000000
v 7.908119 -1.000000 -9.961484
v 6.851757 -1.000000 -7.765507
v 5.341604 -1.000000 -5.572698
v 3.550289 -1.000000 -4.042397
v 1.383251 -1.000000 -3.070098
v -1.004489 -1.000000 -2.630612
v -3.442637 -1.000000 -2.608005
v -5.796571 -1.000000 -2.810188
v -7.983116 -1.000000 -2.995021
v 10.868661 1.000000 -4.692412
v 9.063616 1.000000 -2.210711
v 6.946086 1.000000 -0.234877
v 4.379022 1.000000 1.168248
v 1.602673 1.000000 2.010014
v -1.154015 1.000000 2.414981
v -3.719967 1.000000 2.581962
v -5.987748 1.000000 2.739003
v -8.000000 1.000000 2.961358
v -8.000000 -1.000000 2.961358
v -5.987748 -1.000000 2.739003
v -3.719967 -1.000000 2.581962
v -1.154015 -1.000000 2.414981
v 1.602673 -1.000000 2.010014
v 4.379022 -1.000000 1.168248
v 6.946086 -1.000000 -0.234877
v 9.063616 -1.000000 -2.210711
v 10.868661 -1.000000 -4.692412
v -7.983116 1.000000 -2.995021
v -5.796571 1.000000 -2.810188
v -3.442637 1.000000 -2.608005
v -1.004489 1.000000 -2.630612
v 1.383251 1.000000 -3.070098
v 3.550289 1.000000 -4.042397
v 5.341604 1.000000 -5.572698
v 6.851757 1.000000 -7.765507
v 7.908119 1.000000 -9.961484
vt 0.125571 0.640411
vt 0.031964 0.640411
vt 0.031964 0.359589
vt 0.125571 0.359589
vt 0.125571 0.359589
vt 0.031964 0.359589
vt 0.031964 0.640411
vt 0.874429 0.640411
vt 0.968036 0.640411
vt 0.968036 0.359589
vt 0.874429 0.359589
vt 0.968036 0.640411
vt 0.968036 0.359589
vt 0.874429 0.640411
vt 0.125571 0.640411
vt 0.219179 0.640411
vt 0.219179 0.640411
vt 0.312786 0.640411
vt 0.312786 0.640411
vt 0.406393 0.640411
vt 0.406393 0.640411
vt 0.500000 0.640411
vt 0.500000 0.640411
vt 0.593607 0.640411
vt 0.593607 0.640411
vt 0.687214 0.640411
vt 0.687214 0.640411
vt 0.780822 0.640411
vt 0.780822 0.640411
vt 0.219179 0.359589
vt 0.312786 0.359589
vt 0.406393 0.359589
vt 0.500000 0.359589
vt 0.593607 0.359589
vt 0.687214 0.359589
vt 0.780822 0.359589
vt 0.874429 0.359589
vt 0.780822 0.359589
vt 0.687214 0.359589
vt 0.593607 0.359589
vt 0.500000 0.359589
vt 0.406393 0.359589
vt 0.312786 0.359589
vt 0.219179 0.359589
vn 0.0000 1.0000 0.0000
vn 0.0193 0.0000 0.9998
vn -1.0000 0.0000 0.0000
vn 0.0000 -1.0000 0.0000
vn 0.1800 0.0000 -0.9837
vn -0.9857 0.0000 -0.1684
vn 0.0025 0.0000 -1.0000
vn 0.0842 0.0000 -0.9964
vn 0.0856 0.0000 -0.9963
vn -0.0093 0.0000 -1.0000
vn -0.1810 0.0000 -0.9835
vn -0.4094 0.0000 -0.9124
vn -0.6495 0.0000 -0.7603
vn -0.8236 0.0000 -0.5672
vn -0.9012 0.0000 -0.4335
vn 0.8781 0.0000 0.4785
vn 0.8087 0.0000 0.5882
vn 0.6822 0.0000 0.7311
vn 0.4796 0.0000 0.8775
vn 0.2901 0.0000 0.9570
vn 0.1453 0.0000 0.9894
vn 0.0649 0.0000 0.9979
vn 0.0691 0.0000 0.9976
vn 0.1098 0.0000 0.9940
usemtl Material
s off
f 36/1/1 5/2/1 7/3/1 26/4/1
f 27/5/2 26/4/2 7/3/2 8/6/2
f 8/6/3 7/3/3 5/2/3 6/7/3
f 9/8/4 2/9/4 4/10/4 35/11/4
f 2/9/5 1/12/5 3/13/5 4/10/5
f 9/8/6 44/14/6 1/12/6 2/9/6
f 6/7/7 5/2/7 36/1/7 17/15/7
f 17/15/8 36/1/8 37/16/8 16/17/8
f 16/17/9 37/16/9 38/18/9 15/19/9
f 15/19/10 38/18/10 39/20/10 14/21/10
f 14/21/11 39/20/11 40/22/11 13/23/11
f 13/23/12 40/22/12 41/24/12 12/25/12
f 12/25/13 41/24/13 42/26/13 11/27/13
f 11/27/14 42/26/14 43/28/14 10/29/14
f 10/29/15 43/28/15 44/14/15 9/8/15
f 6/7/4 17/15/4 27/5/4 8/6/4
f 17/15/4 16/17/4 28/30/4 27/5/4
f 16/17/4 15/19/4 29/31/4 28/30/4
f 15/19/4 14/21/4 30/32/4 29/31/4
f 14/21/4 13/23/4 31/33/4 30/32/4
f 13/23/4 12/25/4 32/34/4 31/33/4
f 12/25/4 11/27/4 33/35/4 32/34/4
f 11/27/4 10/29/4 34/36/4 33/35/4
f 10/29/4 9/8/4 35/11/4 34/36/4
f 4/10/16 3/13/16 18/37/16 35/11/16
f 35/11/17 18/37/17 19/38/17 34/36/17
f 34/36/18 19/38/18 20/39/18 33/35/18
f 33/35/19 20/39/19 21/40/19 32/34/19
f 32/34/20 21/40/20 22/41/20 31/33/20
f 31/33/21 22/41/21 23/42/21 30/32/21
f 30/32/22 23/42/22 24/43/22 29/31/22
f 29/31/23 24/43/23 25/44/23 28/30/23
f 28/30/24 25/44/24 26/4/24 27/5/24
f 1/12/1 44/14/1 18/37/1 3/13/1
f 44/14/1 43/28/1 19/38/1 18/37/1
f 43/28/1 42/26/1 20/39/1 19/38/1
f 42/26/1 41/24/1 21/40/1 20/39/1
f 41/24/1 40/22/1 22/41/1 21/40/1
f 40/22/1 39/20/1 23/42/1 22/41/1
f 39/20/1 38/18/1 24/43/1 23/42/1
f 38/18/1 37/16/1 25/44/1 24/43/1
f 37/16/1 36/1/1 26/4/1 25/44/1
