# Blender v2.91.0 OBJ File: 'UVRivers_blender.blend'
# www.blender.org
mtllib StraightRiver.mtl
o StraightRiver_Cube
v 10.000000 1.000000 -3.000000
v 10.000000 -1.000000 -3.000000
v 10.000000 1.000000 3.000000
v 10.000000 -1.000000 3.000000
v -10.000000 1.000000 -3.000000
v -10.000000 -1.000000 -3.000000
v -10.000000 1.000000 3.000000
v -10.000000 -1.000000 3.000000
v 8.000000 -1.000000 -3.000000
v 6.000000 -1.000000 -3.000000
v 4.000000 -1.000000 -3.000000
v 2.000000 -1.000000 -3.000000
v 0.000000 -1.000000 -3.000000
v -2.000000 -1.000000 -3.000000
v -4.000000 -1.000000 -3.000000
v -6.000000 -1.000000 -3.000000
v -8.000000 -1.000000 -3.000000
v 8.000000 1.000000 3.000000
v 6.000000 1.000000 3.000000
v 4.000000 1.000000 3.000000
v 2.000000 1.000000 3.000000
v 0.000000 1.000000 3.000000
v -2.000000 1.000000 3.000000
v -4.000000 1.000000 3.000000
v -6.000000 1.000000 3.000000
v -8.000000 1.000000 3.000000
v -8.000000 -1.000000 3.000000
v -6.000000 -1.000000 3.000000
v -4.000000 -1.000000 3.000000
v -2.000000 -1.000000 3.000000
v 0.000000 -1.000000 3.000000
v 2.000000 -1.000000 3.000000
v 4.000000 -1.000000 3.000000
v 6.000000 -1.000000 3.000000
v 8.000000 -1.000000 3.000000
v -8.000000 1.000000 -3.000000
v -6.000000 1.000000 -3.000000
v -4.000000 1.000000 -3.000000
v -2.000000 1.000000 -3.000000
v 0.000000 1.000000 -3.000000
v 2.000000 1.000000 -3.000000
v 4.000000 1.000000 -3.000000
v 6.000000 1.000000 -3.000000
v 8.000000 1.000000 -3.000000
vt 0.125571 0.640411
vt 0.031964 0.640411
vt 0.031964 0.359589
vt 0.125571 0.359589
vt 0.125571 0.359589
vt 0.031964 0.359589
vt 0.031964 0.640411
vt 0.874429 0.640411
vt 0.968036 0.640411
vt 0.968036 0.359589
vt 0.874429 0.359589
vt 0.968036 0.640411
vt 0.968036 0.359589
vt 0.874429 0.640411
vt 0.125571 0.640411
vt 0.219179 0.640411
vt 0.219179 0.640411
vt 0.312786 0.640411
vt 0.312786 0.640411
vt 0.406393 0.640411
vt 0.406393 0.640411
vt 0.500000 0.640411
vt 0.500000 0.640411
vt 0.593607 0.640411
vt 0.593607 0.640411
vt 0.687214 0.640411
vt 0.687214 0.640411
vt 0.780822 0.640411
vt 0.780822 0.640411
vt 0.219179 0.359589
vt 0.312786 0.359589
vt 0.406393 0.359589
vt 0.500000 0.359589
vt 0.593607 0.359589
vt 0.687214 0.359589
vt 0.780822 0.359589
vt 0.874429 0.359589
vt 0.780822 0.359589
vt 0.687214 0.359589
vt 0.593607 0.359589
vt 0.500000 0.359589
vt 0.406393 0.359589
vt 0.312786 0.359589
vt 0.219179 0.359589
vn 0.0000 1.0000 0.0000
vn 0.0000 0.0000 1.0000
vn -1.0000 0.0000 0.0000
vn 0.0000 -1.0000 0.0000
vn 1.0000 0.0000 0.0000
vn 0.0000 0.0000 -1.0000
usemtl Material
s off
f 36/1/1 5/2/1 7/3/1 26/4/1
f 27/5/2 26/4/2 7/3/2 8/6/2
f 8/6/3 7/3/3 5/2/3 6/7/3
f 9/8/4 2/9/4 4/10/4 35/11/4
f 2/9/5 1/12/5 3/13/5 4/10/5
f 9/8/6 44/14/6 1/12/6 2/9/6
f 6/7/6 5/2/6 36/1/6 17/15/6
f 17/15/6 36/1/6 37/16/6 16/17/6
f 16/17/6 37/16/6 38/18/6 15/19/6
f 15/19/6 38/18/6 39/20/6 14/21/6
f 14/21/6 39/20/6 40/22/6 13/23/6
f 13/23/6 40/22/6 41/24/6 12/25/6
f 12/25/6 41/24/6 42/26/6 11/27/6
f 11/27/6 42/26/6 43/28/6 10/29/6
f 10/29/6 43/28/6 44/14/6 9/8/6
f 6/7/4 17/15/4 27/5/4 8/6/4
f 17/15/4 16/17/4 28/30/4 27/5/4
f 16/17/4 15/19/4 29/31/4 28/30/4
f 15/19/4 14/21/4 30/32/4 29/31/4
f 14/21/4 13/23/4 31/33/4 30/32/4
f 13/23/4 12/25/4 32/34/4 31/33/4
f 12/25/4 11/27/4 33/35/4 32/34/4
f 11/27/4 10/29/4 34/36/4 33/35/4
f 10/29/4 9/8/4 35/11/4 34/36/4
f 4/10/2 3/13/2 18/37/2 35/11/2
f 35/11/2 18/37/2 19/38/2 34/36/2
f 34/36/2 19/38/2 20/39/2 33/35/2
f 33/35/2 20/39/2 21/40/2 32/34/2
f 32/34/2 21/40/2 22/41/2 31/33/2
f 31/33/2 22/41/2 23/42/2 30/32/2
f 30/32/2 23/42/2 24/43/2 29/31/2
f 29/31/2 24/43/2 25/44/2 28/30/2
f 28/30/2 25/44/2 26/4/2 27/5/2
f 1/12/1 44/14/1 18/37/1 3/13/1
f 44/14/1 43/28/1 19/38/1 18/37/1
f 43/28/1 42/26/1 20/39/1 19/38/1
f 42/26/1 41/24/1 21/40/1 20/39/1
f 41/24/1 40/22/1 22/41/1 21/40/1
f 40/22/1 39/20/1 23/42/1 22/41/1
f 39/20/1 38/18/1 24/43/1 23/42/1
f 38/18/1 37/16/1 25/44/1 24/43/1
f 37/16/1 36/1/1 26/4/1 25/44/1
